# xmcd
#
# Track frame offsets:
#	150
#	11845
#	28887
#	48050
#	61177
#	78540
#	93830
#	114097
#	130592
#	145772
#	157592
#	169252
#	185932
#	205292
#	218752
#	236142
#	251397
#	271037
#	287220
#	302190
#
# Disc length: 4178 seconds
#
# Revision: 1
# Processed by: cddbd v1.5.2PL0 Copyright (c) Steve Scherf et al.
# Submitted via: audiograbber 1.83.01
#
DISCID=10105014
DTITLE=Garth Brooks - PSCD 1053
DYEAR=1900
DGENRE=Karaoke
TTITLE0=Not Counting You [vocals]
TTITLE1=The Dance [vocals]
TTITLE2=Friends In Low Places [vocals]
TTITLE3=Much Too Young (To Feel This Damn Old) [vocals]
TTITLE4=If Tomorrow Never Comes [vocals]
TTITLE5=Unanswered Prayers [vocals]
TTITLE6=Shameless [vocals]
TTITLE7=Rodeo [vocals]
TTITLE8=And The Thunder Rolls [vocals]
TTITLE9=Two Of A Kind, Working On A Full House [vocals]
TTITLE10=Not Counting You
TTITLE11=The Dance
TTITLE12=Friends In Low Places
TTITLE13=Much Too Young (To Feel This Damn Old)
TTITLE14=If Tomorrow Never Comes
TTITLE15=Unanswered Prayers
TTITLE16=Shameless
TTITLE17=Rodeo
TTITLE18=And The Thunder Rolls
TTITLE19=Two Of A Kind, Working On A Full House
EXTD=Pocket songs PSCD 1053. "You sing the hits of Garth Brooks"\nGuide vocals 
EXTD=on right channel on t
EXTT0=
EXTT1=
EXTT2=
EXTT3=
EXTT4=
EXTT5=
EXTT6=
EXTT7=
EXTT8=
EXTT9=
EXTT10=
EXTT11=
EXTT12=
EXTT13=
EXTT14=
EXTT15=
EXTT16=
EXTT17=
EXTT18=
EXTT19=
PLAYORDER=
